<?xml version="1.0" standalone="no"?>
<!DOCTYPE svg PUBLIC "-//W3C//DTD SVG 20010904//EN"
 "http://www.w3.org/TR/2001/REC-SVG-20010904/DTD/svg10.dtd">
<svg version="1.0" xmlns="http://www.w3.org/2000/svg"
 width="1024.000000pt" height="1024.000000pt" viewBox="0 0 1024.000000 1024.000000"
 preserveAspectRatio="xMidYMid meet">

<g transform="translate(0.000000,1024.000000) scale(0.100000,-0.100000)"
fill="#000000" stroke="none">
<path d="M9335 9645 c-139 -140 -260 -255 -268 -255 -9 0 -81 56 -161 125 -80
69 -150 125 -156 125 -5 0 -10 5 -10 10 0 6 -20 10 -44 10 -40 0 -50 -5 -99
-52 -30 -29 -60 -63 -66 -75 -14 -27 -15 -120 -1 -128 6 -3 10 -14 10 -23 0
-9 14 -44 30 -77 17 -33 30 -64 30 -70 0 -5 14 -37 30 -70 17 -33 30 -65 30
-71 0 -7 5 -14 11 -16 6 -2 11 -25 12 -51 2 -45 0 -49 -53 -100 -30 -28 -123
-122 -206 -208 -83 -86 -160 -158 -172 -161 -12 -4 -31 3 -48 18 -38 30 -95
32 -136 2 -32 -22 -113 -30 -126 -12 -4 5 -17 15 -29 22 -13 6 -33 18 -45 25
-13 6 -25 14 -28 17 -12 12 -51 30 -65 30 -8 0 -15 5 -15 10 0 6 -9 10 -19 10
-11 0 -21 3 -23 8 -3 7 -79 45 -125 63 -72 28 -126 50 -145 60 -10 5 -27 9
-37 9 -11 0 -23 5 -26 10 -3 6 -17 10 -30 10 -13 0 -27 5 -30 10 -3 6 -17 10
-30 10 -13 0 -26 4 -29 9 -3 5 -20 11 -38 14 -18 3 -55 11 -83 17 -27 6 -70
14 -95 16 -25 3 -54 9 -65 14 -21 9 -52 14 -210 32 -127 14 -596 14 -695 -1
-41 -6 -100 -13 -130 -17 -30 -3 -59 -10 -65 -15 -5 -5 -26 -9 -46 -9 -21 0
-41 -4 -44 -10 -3 -5 -24 -10 -45 -10 -21 0 -42 -4 -45 -10 -3 -5 -19 -10 -35
-10 -16 0 -32 -4 -35 -10 -3 -5 -17 -10 -30 -10 -13 0 -27 -4 -30 -10 -3 -5
-17 -10 -30 -10 -13 0 -27 -4 -30 -10 -3 -5 -17 -10 -30 -10 -13 0 -27 -4 -30
-10 -3 -5 -17 -10 -31 -10 -13 0 -24 -4 -24 -10 0 -5 -6 -10 -14 -10 -8 0 -34
-10 -58 -21 -23 -12 -53 -26 -65 -30 -13 -5 -33 -13 -45 -18 -40 -16 -81 -23
-163 -28 -86 -5 -149 9 -227 48 -10 5 -24 9 -32 9 -8 0 -34 10 -58 21 -23 12
-54 26 -68 32 -14 5 -33 13 -42 18 -10 5 -27 9 -37 9 -11 0 -22 4 -25 8 -3 4
-28 14 -56 22 -28 8 -53 18 -56 22 -3 4 -16 8 -29 8 -13 0 -27 5 -30 10 -3 6
-21 10 -40 10 -19 0 -37 5 -40 10 -3 6 -21 10 -40 10 -19 0 -37 5 -40 10 -3 6
-19 10 -34 10 -15 0 -31 4 -36 9 -6 5 -30 12 -55 15 -25 4 -74 11 -110 16
-153 23 -320 34 -545 34 -259 0 -488 -19 -640 -54 -27 -6 -67 -14 -88 -17 -20
-3 -40 -9 -43 -14 -3 -5 -18 -9 -34 -9 -16 0 -32 -4 -35 -10 -3 -5 -16 -10
-28 -10 -24 0 -93 -22 -103 -33 -4 -4 -18 -7 -30 -7 -13 0 -26 -4 -29 -10 -3
-5 -15 -10 -26 -10 -10 0 -27 -4 -37 -9 -9 -5 -28 -13 -42 -18 -14 -6 -45 -20
-68 -32 -24 -11 -50 -21 -58 -21 -8 0 -14 -4 -14 -10 0 -5 -6 -10 -14 -10 -17
0 -215 -99 -234 -117 -6 -6 -21 -15 -32 -18 -11 -3 -20 -11 -20 -16 0 -5 -6
-9 -13 -9 -7 0 -23 -9 -35 -20 -12 -11 -24 -20 -27 -20 -9 0 -145 -94 -170
-118 -11 -9 -36 -28 -55 -42 -19 -13 -37 -27 -40 -30 -3 -3 -34 -30 -70 -60
-83 -70 -187 -175 -270 -270 -36 -41 -71 -81 -78 -88 -7 -8 -25 -30 -40 -50
-15 -21 -29 -39 -32 -42 -3 -3 -21 -25 -40 -50 -19 -25 -38 -46 -42 -48 -4 -2
-8 -8 -8 -13 0 -5 -27 -50 -60 -99 -33 -49 -60 -94 -60 -99 0 -5 -3 -11 -7
-13 -15 -6 -153 -278 -153 -300 0 -10 -4 -18 -10 -18 -5 0 -10 -7 -10 -15 0
-15 -4 -25 -28 -72 -7 -13 -12 -30 -12 -38 0 -8 -4 -23 -9 -33 -5 -9 -14 -30
-21 -47 -7 -16 -16 -38 -21 -47 -5 -10 -9 -29 -9 -42 0 -14 -4 -27 -9 -30 -5
-3 -12 -22 -15 -41 -3 -19 -9 -51 -12 -70 -3 -19 -10 -38 -15 -41 -5 -3 -9
-22 -9 -43 0 -20 -4 -41 -9 -46 -5 -6 -12 -32 -15 -60 -3 -27 -10 -79 -16
-115 -26 -156 -33 -261 -32 -505 0 -246 6 -340 32 -480 6 -33 14 -82 16 -110
3 -27 10 -54 15 -60 5 -5 9 -24 9 -41 0 -18 4 -36 10 -39 5 -3 10 -19 10 -35
0 -16 5 -32 10 -35 6 -3 10 -19 10 -35 0 -16 5 -32 10 -35 6 -3 10 -17 10 -31
0 -13 4 -32 9 -42 8 -16 17 -36 41 -97 6 -14 15 -37 21 -52 7 -16 15 -37 19
-48 4 -11 17 -40 29 -63 11 -24 21 -50 21 -58 0 -8 5 -14 10 -14 6 0 10 -7 10
-15 0 -14 11 -35 64 -125 14 -25 34 -62 43 -82 10 -21 21 -38 25 -38 5 0 8 -5
8 -10 0 -10 137 -221 149 -230 4 -3 18 -21 31 -40 13 -19 27 -37 30 -40 3 -3
23 -27 44 -55 68 -86 347 -358 446 -434 427 -329 878 -519 1395 -587 160 -22
545 -25 685 -6 365 49 643 135 989 306 l134 66 91 0 c130 0 203 -19 356 -93
167 -79 287 -127 421 -167 477 -142 957 -166 1416 -70 250 52 463 127 713 252
595 296 1060 764 1355 1363 168 339 254 630 296 1000 16 133 16 502 1 643 -71
650 -331 1242 -749 1705 -71 79 -72 80 -58 108 8 15 15 34 15 41 0 7 98 111
218 230 168 168 224 218 250 223 25 5 66 40 170 146 75 77 144 156 153 175 9
19 126 152 260 295 134 144 252 273 261 287 24 36 23 109 0 145 -31 46 -204
207 -223 207 -10 0 -21 5 -24 10 -3 6 -27 10 -52 10 l-45 0 -253 -255z m-5917
-1187 l-3 -393 -2 388 -3 387 -66 0 c-216 0 -744 -97 -744 -137 0 -7 -4 -13
-9 -13 -5 0 -8 8 -7 17 7 46 489 139 739 142 l97 1 -2 -392z m932 267 c65 -19
184 -62 266 -96 213 -87 274 -108 319 -110 22 -1 54 -5 70 -9 28 -7 28 -8 5
-9 -72 -2 -166 23 -315 85 -141 59 -370 139 -447 158 l-28 6 -3 -342 -2 -343
-3 348 c-1 258 1 347 10 347 6 0 64 -16 128 -35z m-1753 -167 c-3 -8 -6 -5 -6
6 -1 11 2 17 5 13 3 -3 4 -12 1 -19z m0 -50 c-3 -7 -5 -2 -5 12 0 14 2 19 5
13 2 -7 2 -19 0 -25z m2430 -335 c-1 -60 -3 -11 -3 107 0 118 2 167 3 108 2
-60 2 -156 0 -215z m-2430 240 c-3 -10 -5 -2 -5 17 0 19 2 27 5 18 2 -10 2
-26 0 -35z m0 -65 c-3 -8 -6 -5 -6 6 -1 11 2 17 5 13 3 -3 4 -12 1 -19z m-797
-140 l-5 -143 -5 132 -5 133 -83 -64 c-90 -69 -88 -67 -177 -150 l-60 -56 158
-1 c86 -1 163 -2 170 -3 9 -1 13 -89 15 -398 l2 -398 -425 0 -425 0 0 93 0 94
84 125 c180 273 425 534 676 722 41 31 77 56 80 56 3 0 3 -64 0 -142z m797
100 c-3 -8 -6 -5 -6 6 -1 11 2 17 5 13 3 -3 4 -12 1 -19z m0 -140 c-2 -18 -4
-4 -4 32 0 36 2 50 4 33 2 -18 2 -48 0 -65z m0 -90 c-3 -8 -6 -5 -6 6 -1 11 2
17 5 13 3 -3 4 -12 1 -19z m826 -421 l2 -397 -422 0 -423 0 0 400 0 399 421
-2 420 -2 2 -398z m1615 244 l3 -155 61 110 c34 60 71 128 82 151 12 24 25 43
29 43 8 0 -5 -24 -112 -215 -160 -285 -324 -692 -392 -970 -69 -288 -92 -511
-92 -895 0 -305 6 -384 48 -640 59 -357 171 -716 338 -1082 36 -80 43 -104 38
-135 l-6 -38 -415 0 -415 0 -3 393 -2 392 281 0 c264 0 281 1 274 18 -12 30
-62 243 -84 352 -19 100 -42 249 -56 373 l-6 57 -205 0 -204 0 0 390 0 390
210 0 c160 0 212 3 214 13 2 6 11 66 20 132 22 168 59 326 116 495 26 80 51
153 55 163 7 16 -12 17 -304 17 l-311 0 0 393 c0 217 3 397 7 400 3 4 191 6
417 5 l411 -3 3 -154z m-2870 142 c-65 -2 -171 -2 -235 0 -65 1 -12 3 117 3
129 0 182 -2 118 -3z m179 1 c-3 -3 -12 -4 -19 -1 -8 3 -5 6 6 6 11 1 17 -2
13 -5z m1486 -1 c-73 -2 -193 -2 -265 0 -73 1 -14 3 132 3 146 0 205 -2 133
-3z m184 1 c-3 -3 -12 -4 -19 -1 -8 3 -5 6 6 6 11 1 17 -2 13 -5z m1060 0 c-3
-3 -12 -4 -19 -1 -8 3 -5 6 6 6 11 1 17 -2 13 -5z m40 0 c-3 -3 -12 -4 -19 -1
-8 3 -5 6 6 6 11 1 17 -2 13 -5z m3425 -151 c112 -134 237 -303 224 -303 -3 0
-19 21 -37 48 -39 58 -169 222 -220 278 l-37 42 -33 -34 c-32 -33 -33 -36 -20
-67 34 -84 32 -145 -6 -203 -14 -22 -13 -23 29 -34 24 -6 59 -16 78 -21 19 -5
69 -14 110 -19 41 -5 93 -13 114 -16 31 -6 37 -4 31 6 -5 8 -4 11 3 6 17 -10
103 -158 167 -285 158 -318 248 -625 291 -1001 22 -197 15 -552 -15 -725 -95
-558 -317 -1024 -686 -1445 -81 -91 -162 -174 -128 -130 10 13 2 25 -50 69
-107 93 -248 262 -332 401 l-37 61 36 297 c20 163 36 309 36 324 0 36 -60 103
-103 117 -18 5 -71 12 -118 16 -86 7 -156 19 -166 29 -8 8 -32 143 -49 276
-22 180 -29 524 -15 720 12 166 55 450 72 482 9 17 184 224 348 413 227 261
386 467 400 520 12 45 2 101 -23 141 -16 24 -16 26 20 69 20 25 40 45 44 45 4
0 36 -35 72 -77z m-3184 -156 c189 -266 354 -608 442 -917 31 -107 74 -308 84
-391 l5 -45 -174 -174 -174 -173 -35 27 c-57 43 -155 84 -228 96 -123 19 -262
-17 -365 -95 -56 -42 -123 -120 -137 -159 -3 -10 -8 -17 -9 -15 -5 8 11 480
17 514 l7 35 32 -37 c71 -83 145 -133 238 -163 58 -19 84 -22 171 -18 124 6
192 29 281 96 231 176 261 513 64 729 -111 122 -226 169 -393 161 -78 -4 -112
-10 -159 -30 -33 -15 -61 -25 -63 -23 -2 1 14 45 34 96 75 190 278 584 295
573 5 -3 35 -42 67 -87z m-4417 -350 c-10 -9 -11 -8 -5 6 3 10 9 15 12 12 3
-3 0 -11 -7 -18z m-36 -67 c-14 -27 -28 -50 -30 -50 -3 0 6 23 20 50 14 28 28
50 30 50 3 0 -6 -22 -20 -50z m1078 -57 c-29 -2 -78 -2 -110 0 -32 2 -8 3 52
3 61 0 87 -1 58 -3z m220 0 c-7 -2 -21 -2 -30 0 -10 3 -4 5 12 5 17 0 24 -2
18 -5z m1370 0 c-23 -2 -64 -2 -90 0 -26 2 -7 3 42 3 50 0 71 -1 48 -3z m114
1 c-3 -3 -12 -4 -19 -1 -8 3 -5 6 6 6 11 1 17 -2 13 -5z m-270 -616 c-1 -112
-2 -21 -2 202 0 223 1 314 2 203 2 -112 2 -294 0 -405z m800 0 c-1 -112 -2
-21 -2 202 0 223 1 314 2 203 2 -112 2 -294 0 -405z m-2420 20 c-1 -106 -2
-20 -2 192 0 212 1 298 2 193 2 -106 2 -280 0 -385z m-826 495 c-9 -15 -10
-12 -10 17 0 29 1 32 10 18 7 -12 7 -24 0 -35z m1626 15 c-3 -8 -6 -5 -6 6 -1
11 2 17 5 13 3 -3 4 -12 1 -19z m0 -80 c-2 -13 -4 -3 -4 22 0 25 2 35 4 23 2
-13 2 -33 0 -45z m0 -65 c-3 -10 -5 -4 -5 12 0 17 2 24 5 18 2 -7 2 -21 0 -30z
m2810 -81 c69 -49 90 -166 42 -236 -63 -94 -190 -100 -266 -13 -71 81 -47 211
47 260 47 24 135 19 177 -11z m-2810 -154 c-3 -7 -5 -2 -5 12 0 14 2 19 5 13
2 -7 2 -19 0 -25z m0 -150 c-3 -7 -5 -2 -5 12 0 14 2 19 5 13 2 -7 2 -19 0
-25z m0 -70 c-3 -7 -5 -2 -5 12 0 14 2 19 5 13 2 -7 2 -19 0 -25z m0 -80 c-2
-13 -4 -3 -4 22 0 25 2 35 4 23 2 -13 2 -33 0 -45z m-1957 -68 c0 -5 -6 -9
-12 -7 -9 1 -17 -23 -25 -73 l-12 -75 5 75 c3 41 8 78 10 82 7 12 34 10 34 -2z
m1170 -380 l0 -390 -425 0 -425 0 0 390 0 390 425 0 425 0 0 -390z m240 383
c-108 -7 -230 -7 -230 0 0 4 62 6 138 5 75 -1 117 -3 92 -5z m1372 -380 l-2
-388 -420 -3 -420 -2 0 390 0 390 423 0 422 0 -3 -387z m61 380 c-7 -2 -21 -2
-30 0 -10 3 -4 5 12 5 17 0 24 -2 18 -5z m-2898 -450 c0 -159 -3 -256 -6 -218
-9 98 -10 292 -2 408 3 53 7 97 7 97 1 0 2 -129 1 -287z m4802 -80 c54 -25 88
-84 88 -153 0 -64 -16 -94 -71 -137 -31 -23 -47 -28 -95 -28 -49 0 -63 5 -95
30 -46 38 -74 89 -74 135 0 49 38 120 79 147 41 28 117 31 168 6z m-4790 -235
c-3 -8 -6 -5 -6 6 -1 11 2 17 5 13 3 -3 4 -12 1 -19z m1321 5 c-16 -2 -40 -2
-55 0 -16 2 -3 4 27 4 30 0 43 -2 28 -4z m115 0 c-7 -2 -19 -2 -25 0 -7 3 -2
5 12 5 14 0 19 -2 13 -5z m90 0 c-7 -2 -21 -2 -30 0 -10 3 -4 5 12 5 17 0 24
-2 18 -5z m1495 0 c-32 -2 -86 -2 -120 0 -35 2 -9 3 57 3 66 0 94 -1 63 -3z
m-2646 -48 c-2 -14 -6 -25 -8 -25 -2 0 -4 11 -4 25 0 14 4 25 9 25 4 0 6 -11
3 -25z m2445 -562 c-1 -109 -2 -20 -2 197 0 217 1 306 2 198 2 -109 2 -287 0
-395z m-1620 -1 c-1 -103 -2 -16 -2 193 0 209 1 293 2 187 2 -106 2 -277 0
-380z m2420 -9 c-1 -103 -2 -21 -2 182 0 204 1 288 2 188 2 -100 2 -266 0
-370z m-3246 485 c-9 -20 -10 -18 -10 17 0 31 2 36 9 23 6 -10 7 -25 1 -40z
m1626 10 c-3 -8 -6 -5 -6 6 -1 11 2 17 5 13 3 -3 4 -12 1 -19z m0 -160 c-3 -8
-6 -5 -6 6 -1 11 2 17 5 13 3 -3 4 -12 1 -19z m-1709 -670 c33 -71 59 -128 57
-128 -6 0 -135 257 -135 267 0 17 21 -20 78 -139z m922 -253 l0 -396 -240 3
c-132 2 -240 1 -240 -2 0 -9 200 -198 270 -255 79 -64 177 -135 185 -135 3 0
6 87 7 193 l2 192 6 -205 c3 -113 4 -207 3 -209 -9 -14 -264 200 -399 334
-165 164 -277 303 -390 485 l-59 95 3 148 3 147 425 0 424 0 0 -395z m30 391
c0 -3 -4 -8 -10 -11 -5 -3 -10 -1 -10 4 0 6 5 11 10 11 6 0 10 -2 10 -4z m77
-2 c-3 -3 -12 -4 -19 -1 -8 3 -5 6 6 6 11 1 17 -2 13 -5z m1507 -387 l-2 -392
-421 -3 -421 -2 0 395 0 395 423 0 422 0 -1 -393z m1644 -362 c-3 -3 -9 2 -12
12 -6 14 -5 15 5 6 7 -7 10 -15 7 -18z m-2926 -22 c-62 -2 -161 -2 -220 0 -59
1 -8 3 113 3 121 0 169 -2 107 -3z m1620 0 c-62 -2 -161 -2 -220 0 -59 1 -8 3
113 3 121 0 169 -2 107 -3z m-340 -516 l3 -397 -105 0 c-124 0 -285 14 -425
36 -126 20 -297 62 -310 76 -7 8 -4 9 10 3 11 -4 199 -9 418 -10 l397 -4 2
397 c1 218 3 375 5 347 1 -27 4 -229 5 -448z m851 -197 c71 25 129 51 282 125
156 76 218 90 361 82 l104 -6 2 247 2 247 6 -255 c3 -140 5 -256 5 -257 0 0
-42 3 -93 8 -155 16 -220 2 -402 -86 -85 -41 -194 -90 -242 -109 l-88 -34 2
366 3 367 2 -357 3 -357 53 19z m-1676 488 c-3 -7 -5 -2 -5 12 0 14 2 19 5 13
2 -7 2 -19 0 -25z m0 -160 c-3 -8 -6 -5 -6 6 -1 11 2 17 5 13 3 -3 4 -12 1
-19z m0 -320 c-3 -7 -5 -2 -5 12 0 14 2 19 5 13 2 -7 2 -19 0 -25z m1367 -123
c-105 -32 -537 -95 -518 -75 3 3 56 10 118 16 63 6 169 22 237 35 l124 24
-240 5 -240 6 280 0 c236 1 274 -1 239 -11z"/>
<path d="M8632 7320 c0 -8 6 -31 13 -50 7 -19 13 -28 13 -20 0 8 -6 31 -13 50
-7 19 -13 28 -13 20z"/>
<path d="M8660 7220 c0 -8 7 -40 16 -72 9 -32 14 -61 12 -64 -6 -5 -229 24
-258 33 -8 3 -39 7 -69 9 -29 3 -88 11 -130 19 -42 8 -85 14 -96 14 -35 -2
112 -29 345 -63 124 -18 226 -32 227 -32 3 2 -38 160 -43 165 -2 2 -4 -2 -4
-9z"/>
<path d="M8050 7170 c14 -4 34 -8 45 -8 16 0 15 2 -5 8 -14 4 -34 8 -45 8 -16
0 -15 -2 5 -8z"/>
<path d="M8577 7136 c-4 -10 -1 -13 8 -9 8 3 12 9 9 14 -7 12 -11 11 -17 -5z"/>
<path d="M8435 7130 c-3 -5 1 -10 10 -10 9 0 13 5 10 10 -3 6 -8 10 -10 10 -2
0 -7 -4 -10 -10z"/>
<path d="M8475 7130 c-3 -5 -1 -10 4 -10 6 0 11 5 11 10 0 6 -2 10 -4 10 -3 0
-8 -4 -11 -10z"/>
<path d="M8521 7124 c0 -11 3 -14 6 -6 3 7 2 16 -1 19 -3 4 -6 -2 -5 -13z"/>
<path d="M8305 6756 c-69 -31 -115 -110 -115 -197 0 -71 17 -122 57 -168 40
-48 87 -65 159 -59 129 11 205 151 164 300 -30 106 -165 169 -265 124z"/>
<path d="M8332 5599 c-52 -15 -107 -78 -122 -138 -14 -60 -7 -138 17 -185 43
-85 130 -127 219 -105 96 24 162 127 148 229 -11 86 -17 103 -47 137 -56 63
-133 85 -215 62z"/>
<path d="M755 2862 c-55 -1 -104 -7 -109 -12 -6 -6 -18 -10 -28 -10 -10 0 -26
-4 -36 -9 -9 -5 -32 -16 -49 -23 -18 -7 -33 -16 -33 -20 0 -5 -6 -8 -14 -8
-36 0 -166 -161 -166 -206 0 -8 -4 -14 -10 -14 -5 0 -10 -13 -10 -29 0 -17 -4
-32 -9 -35 -19 -12 -24 -103 -28 -491 -3 -279 -1 -412 7 -440 7 -22 17 -58 23
-80 65 -240 249 -364 539 -365 184 0 318 45 424 143 l60 56 26 -33 c38 -48
125 -103 209 -133 68 -25 87 -27 229 -28 175 0 229 11 338 71 l64 35 20 -26
c43 -55 82 -65 258 -65 174 0 211 8 261 56 l27 25 26 -26 c48 -48 81 -55 266
-55 184 0 216 7 258 52 l23 25 53 -28 c29 -16 93 -38 142 -50 75 -18 108 -20
214 -16 179 8 291 48 387 140 l32 30 56 -46 c71 -58 139 -90 239 -112 174 -39
437 3 528 83 17 14 21 12 53 -21 51 -52 85 -59 282 -55 158 3 174 5 201 25
l29 22 49 -25 c48 -24 53 -25 245 -22 194 3 196 3 237 30 24 16 44 24 47 18 4
-6 24 -19 45 -30 35 -18 59 -20 245 -20 226 0 248 4 300 59 21 23 35 55 51
119 22 85 23 86 23 38 1 -95 31 -152 101 -195 32 -19 49 -21 208 -21 189 0
217 6 264 56 37 40 48 74 49 157 l1 72 23 -88 c27 -105 56 -150 111 -177 36
-18 61 -20 240 -20 176 0 204 2 237 19 36 18 38 18 74 0 32 -17 60 -19 214
-19 101 0 190 5 206 11 43 16 92 69 105 114 l11 40 8 -34 c10 -45 38 -82 85
-108 39 -22 40 -22 588 -23 540 0 551 0 594 21 26 13 54 38 70 62 27 40 27 43
27 206 0 139 -3 171 -17 198 -37 67 -141 104 -229 82 -39 -10 -54 -10 -69 -1
-11 7 -27 12 -35 12 -13 0 -15 60 -15 500 0 556 1 545 -66 596 l-37 29 -187 0
c-175 0 -189 -1 -232 -23 -51 -27 -97 -99 -99 -154 0 -30 -2 -29 -19 20 -58
162 -107 178 -480 158 -85 -5 -191 -7 -235 -5 -174 9 -374 3 -402 -12 -16 -8
-30 -16 -33 -19 -3 -3 -19 -16 -37 -28 l-32 -23 -17 26 c-29 45 -104 67 -229
67 -437 0 -733 0 -835 0 -120 1 -190 -7 -190 -21 0 -3 -13 -12 -28 -19 -16 -6
-38 -21 -51 -33 -12 -12 -24 -19 -25 -18 -2 2 -8 14 -15 26 -23 44 -85 60
-269 69 -118 6 -137 3 -249 -49 -16 -7 -30 -7 -48 1 -14 7 -37 12 -50 12 -13
0 -27 5 -30 10 -3 6 -26 10 -51 10 -25 0 -66 5 -92 12 -36 9 -103 8 -293 -1
-204 -11 -256 -11 -298 0 -42 11 -77 11 -188 1 -75 -7 -142 -16 -147 -21 -22
-16 -63 -20 -82 -7 -10 7 -57 18 -103 25 -100 15 -289 -1 -331 -29 -59 -38
-77 -41 -128 -19 -129 57 -153 62 -325 61 -100 0 -163 -4 -170 -11 -6 -6 -19
-11 -29 -11 -10 0 -26 -4 -36 -9 -23 -12 -60 -26 -104 -40 -35 -11 -40 -10
-75 18 -39 30 -54 34 -215 47 -102 9 -158 -4 -289 -67 -11 -5 -23 -1 -35 12
-9 10 -23 19 -31 19 -7 0 -13 4 -13 9 0 10 -114 24 -195 23 -572 -7 -634 -9
-648 -20 -20 -17 -93 -18 -113 -1 -14 11 -57 14 -210 13 l-192 -1 -49 -34
c-26 -19 -50 -37 -51 -42 -2 -4 -28 6 -58 23 -31 16 -64 30 -74 30 -10 0 -22
5 -25 10 -3 6 -19 10 -34 10 -15 0 -31 4 -37 9 -11 11 -128 17 -259 13z m289
-201 c108 -53 167 -158 182 -321 l7 -70 -127 0 -126 0 0 38 c0 54 -26 125 -56
153 -21 20 -36 24 -89 24 -77 0 -108 -23 -130 -99 -19 -62 -22 -696 -4 -761 6
-21 26 -54 44 -72 30 -30 38 -33 93 -33 50 0 66 4 91 26 42 35 61 105 61 221
l0 93 -80 0 -80 0 0 110 0 110 205 0 205 0 0 -207 c0 -297 -28 -406 -126 -492
-70 -61 -125 -76 -284 -76 -124 0 -139 2 -190 26 -95 45 -151 120 -188 252
-15 53 -17 112 -17 422 0 318 2 367 18 424 35 122 80 187 159 227 71 36 117
43 249 40 109 -2 121 -4 183 -35z m2844 9 c64 -28 124 -93 147 -158 9 -26 19
-86 22 -134 l6 -88 -122 0 -121 0 0 43 c0 109 -39 157 -126 157 -41 0 -59 -5
-81 -24 -24 -21 -28 -32 -31 -95 -2 -39 -1 -82 2 -95 11 -46 60 -89 216 -191
236 -156 271 -204 278 -387 6 -150 -18 -229 -92 -303 -74 -75 -125 -90 -296
-90 -128 0 -138 2 -198 29 -117 54 -174 151 -180 309 l-4 97 126 0 126 0 0
-60 c0 -118 36 -160 137 -160 55 0 67 4 95 29 29 25 32 35 36 94 2 37 1 78 -2
92 -11 44 -74 102 -209 192 -149 98 -232 175 -267 248 -22 45 -25 63 -25 170
0 93 4 130 18 165 58 141 159 192 372 187 99 -3 129 -8 173 -27z m-2238 -508
c0 -311 4 -531 10 -553 15 -54 50 -82 113 -87 67 -5 108 14 131 62 14 30 16
94 16 568 l0 533 125 0 125 0 0 -551 c0 -525 -1 -555 -20 -617 -27 -87 -89
-157 -168 -189 -49 -19 -75 -22 -192 -23 -105 0 -147 4 -187 18 -107 37 -181
136 -202 268 -10 60 -16 1080 -7 1090 2 2 61 3 130 1 l126 -3 0 -517z m1520
-163 l0 -679 -129 0 -129 0 -68 173 c-37 94 -112 282 -166 417 l-100 245 7
-417 7 -418 -126 0 -126 0 0 680 0 680 133 0 133 0 13 -37 c22 -62 313 -795
315 -791 0 2 -1 189 -4 416 -3 228 -4 414 -3 415 1 1 56 1 122 -1 l121 -3 0
-680z m1305 148 c0 -519 1 -533 21 -567 25 -44 56 -60 114 -60 58 0 89 16 114
60 20 34 21 51 24 568 l3 533 122 0 122 0 3 -518 c3 -550 -1 -610 -43 -692
-32 -64 -100 -124 -166 -147 -82 -29 -293 -27 -369 4 -97 38 -164 124 -189
240 -7 35 -11 229 -11 585 l0 532 127 -3 128 -3 0 -532z m1267 500 c66 -32
101 -70 137 -147 23 -50 26 -69 29 -205 2 -85 -1 -176 -7 -210 -16 -87 -56
-161 -105 -197 -22 -16 -40 -33 -39 -36 1 -4 47 -125 101 -269 l100 -263 -138
0 -138 0 -82 245 -82 245 -54 0 -54 0 0 -245 0 -245 -125 0 -125 0 0 683 0
682 262 -5 263 -5 57 -28z m579 -494 c46 -277 86 -503 89 -503 3 0 40 231 83
513 44 281 80 513 81 514 1 1 60 3 131 3 104 2 130 -1 128 -12 -3 -19 -188
-964 -229 -1165 -18 -95 -34 -175 -34 -178 0 -3 -74 -5 -164 -5 l-164 0 -134
678 -134 677 125 5 c106 4 127 3 132 -10 4 -8 44 -241 90 -517z m899 -154 l0
-679 -130 0 -130 0 0 680 0 679 123 3 c67 2 125 2 130 0 4 -2 7 -309 7 -683z
m470 167 c47 -284 88 -516 91 -516 4 0 9 27 13 60 7 59 137 832 156 925 l10
50 125 0 c94 0 125 -3 125 -13 0 -9 -183 -916 -262 -1299 l-11 -53 -158 0
c-87 0 -160 4 -163 8 -5 8 -77 372 -211 1063 -30 158 -55 288 -55 290 0 2 57
3 127 2 l128 -2 85 -515z m1240 -166 l136 -680 -127 0 -127 0 -6 28 c-3 15
-13 70 -21 122 -9 52 -18 103 -21 113 -5 15 -21 17 -144 17 l-138 0 -16 -92
c-9 -51 -20 -113 -24 -138 l-8 -45 -133 -3 c-105 -2 -132 0 -128 10 2 7 64
310 136 673 73 363 134 665 135 670 2 6 67 9 177 7 l174 -3 135 -679z m520
113 l0 -573 185 0 185 0 0 -110 0 -110 -314 0 -314 0 -1 676 c0 372 1 679 3
683 2 3 61 6 130 6 l126 0 0 -572z"/>
<path d="M5410 2250 l0 -230 71 0 c146 0 174 38 174 235 0 107 -3 136 -18 163
-24 44 -70 62 -157 62 l-70 0 0 -230z"/>
<path d="M8567 2117 c-26 -161 -48 -295 -47 -299 0 -5 46 -8 101 -8 l102 0 -7
38 c-39 239 -95 554 -98 557 -1 2 -25 -128 -51 -288z"/>
</g>
</svg>
